STARTFONT 2.1
COMMENT  
COMMENT  WARNING:  This bdf file was generated from an X server using
COMMENT  xbdfdump.  The resulting font is subject to the same copyright,
COMMENT  license, and trademark restrictions as the original font.  The
COMMENT  author and distributors of xbdfdump disclaim all liability for
COMMENT  misuse of the program or its output.
COMMENT  
FONT -phaisarn-angsana-bold-i-normal--10-100-75-75-p-75-tis620-0
SIZE 10 75 75
FONTBOUNDINGBOX 23 29 -7 -9
STARTPROPERTIES 26
FOUNDRY "Phaisarn"
FAMILY_NAME "Angsana"
WEIGHT_NAME "bold"
SLANT "i"
SETWIDTH_NAME "normal"
ADD_STYLE_NAME ""
PIXEL_SIZE 10
POINT_SIZE 100
RESOLUTION_X 75
RESOLUTION_Y 75
SPACING "p"
AVERAGE_WIDTH 75
CHARSET_REGISTRY "tis620"
CHARSET_ENCODING "0"
COPYRIGHT "Angsana by Pt-TITech 1997"
RAW_PIXELSIZE 1000
RAW_POINTSIZE "N"
RAW_ASCENT "CIRCUMFLEX_ACCENT"
RAW_DESCENT "RAW_FIGURE_WIDTH"
RAW_AVERAGE_WIDTH 2994
FACE_NAME "Angsana BoldInclined"
WEIGHT 10
X_HEIGHT 6
QUAD_WIDTH 8
FONT_ASCENT 15
FONT_DESCENT 10
ENDPROPERTIES
CHARS 199
STARTCHAR space
ENCODING 32
SWIDTH 288 0
DWIDTH 3 0
BBX 0 0 0 0
BITMAP
ENDCHAR
STARTCHAR exclam
ENCODING 33
SWIDTH 480 0
DWIDTH 5 0
BBX 3 9 1 0
BITMAP
20
20
20
20
20
40
00
c0
c0
ENDCHAR
STARTCHAR quotedbl
ENCODING 34
SWIDTH 672 0
DWIDTH 7 0
BBX 4 4 3 5
BITMAP
90
90
b0
a0
ENDCHAR
STARTCHAR numbersign
ENCODING 35
SWIDTH 576 0
DWIDTH 6 0
BBX 5 9 1 0
BITMAP
28
48
48
f8
50
f8
90
90
90
ENDCHAR
STARTCHAR dollar
ENCODING 36
SWIDTH 576 0
DWIDTH 6 0
BBX 6 9 1 0
BITMAP
30
58
54
60
30
38
b8
f0
40
ENDCHAR
STARTCHAR percent
ENCODING 37
SWIDTH 1056 0
DWIDTH 11 0
BBX 9 9 1 0
BITMAP
2080
5100
d200
b400
a900
5280
2480
4500
8200
ENDCHAR
STARTCHAR ampersand
ENCODING 38
SWIDTH 960 0
DWIDTH 10 0
BBX 8 9 1 0
BITMAP
04
0a
1a
1c
3b
5a
ce
ce
ff
ENDCHAR
STARTCHAR apostrophe
ENCODING 39
SWIDTH 384 0
DWIDTH 4 0
BBX 1 4 2 5
BITMAP
80
80
80
80
ENDCHAR
STARTCHAR parenleft
ENCODING 40
SWIDTH 384 0
DWIDTH 4 0
BBX 4 11 1 -2
BITMAP
10
20
60
40
c0
80
80
80
80
40
40
ENDCHAR
STARTCHAR parenright
ENCODING 41
SWIDTH 384 0
DWIDTH 4 0
BBX 5 11 -1 -2
BITMAP
10
08
08
08
08
08
18
10
30
60
80
ENDCHAR
STARTCHAR asterisk
ENCODING 42
SWIDTH 576 0
DWIDTH 6 0
BBX 5 5 2 4
BITMAP
20
20
f8
30
50
ENDCHAR
STARTCHAR plus
ENCODING 43
SWIDTH 672 0
DWIDTH 7 0
BBX 6 8 1 0
BITMAP
10
10
10
fc
10
10
10
10
ENDCHAR
STARTCHAR comma
ENCODING 44
SWIDTH 288 0
DWIDTH 3 0
BBX 2 4 0 -2
BITMAP
c0
c0
40
80
ENDCHAR
STARTCHAR minus
ENCODING 45
SWIDTH 384 0
DWIDTH 4 0
BBX 3 1 0 2
BITMAP
e0
ENDCHAR
STARTCHAR period
ENCODING 46
SWIDTH 288 0
DWIDTH 3 0
BBX 2 2 0 0
BITMAP
c0
c0
ENDCHAR
STARTCHAR slash
ENCODING 47
SWIDTH 384 0
DWIDTH 4 0
BBX 6 9 -1 0
BITMAP
04
08
08
10
10
20
40
40
80
ENDCHAR
STARTCHAR 0
ENCODING 48
SWIDTH 576 0
DWIDTH 6 0
BBX 5 9 1 0
BITMAP
10
28
48
c8
d8
98
90
a0
40
ENDCHAR
STARTCHAR 1
ENCODING 49
SWIDTH 576 0
DWIDTH 6 0
BBX 5 9 1 0
BITMAP
38
18
18
10
30
30
20
60
f0
ENDCHAR
STARTCHAR 2
ENCODING 50
SWIDTH 576 0
DWIDTH 6 0
BBX 6 9 0 0
BITMAP
38
4c
0c
08
18
10
20
48
f0
ENDCHAR
STARTCHAR 3
ENCODING 51
SWIDTH 576 0
DWIDTH 6 0
BBX 6 9 0 0
BITMAP
38
2c
0c
10
38
18
18
10
e0
ENDCHAR
STARTCHAR 4
ENCODING 52
SWIDTH 576 0
DWIDTH 6 0
BBX 6 9 1 0
BITMAP
04
0c
1c
28
58
98
f8
30
30
ENDCHAR
STARTCHAR 5
ENCODING 53
SWIDTH 576 0
DWIDTH 6 0
BBX 5 9 1 0
BITMAP
38
20
60
70
10
10
10
90
e0
ENDCHAR
STARTCHAR 6
ENCODING 54
SWIDTH 576 0
DWIDTH 6 0
BBX 5 9 1 0
BITMAP
18
20
40
f0
d8
98
90
b0
60
ENDCHAR
STARTCHAR 7
ENCODING 55
SWIDTH 576 0
DWIDTH 6 0
BBX 5 9 2 0
BITMAP
f8
88
10
10
20
40
40
80
80
ENDCHAR
STARTCHAR 8
ENCODING 56
SWIDTH 576 0
DWIDTH 6 0
BBX 6 9 0 0
BITMAP
18
34
74
74
38
cc
8c
88
70
ENDCHAR
STARTCHAR 9
ENCODING 57
SWIDTH 576 0
DWIDTH 6 0
BBX 5 9 1 0
BITMAP
30
68
48
c8
d8
78
10
20
c0
ENDCHAR
STARTCHAR colon
ENCODING 58
SWIDTH 384 0
DWIDTH 4 0
BBX 3 6 1 0
BITMAP
60
60
00
00
c0
c0
ENDCHAR
STARTCHAR semicolon
ENCODING 59
SWIDTH 384 0
DWIDTH 4 0
BBX 4 8 0 -2
BITMAP
30
30
00
00
60
60
20
c0
ENDCHAR
STARTCHAR less
ENCODING 60
SWIDTH 672 0
DWIDTH 7 0
BBX 6 6 1 1
BITMAP
04
18
e0
e0
18
04
ENDCHAR
STARTCHAR equal
ENCODING 61
SWIDTH 672 0
DWIDTH 7 0
BBX 6 3 1 3
BITMAP
fc
00
fc
ENDCHAR
STARTCHAR greater
ENCODING 62
SWIDTH 672 0
DWIDTH 7 0
BBX 6 6 1 1
BITMAP
80
60
1c
1c
60
80
ENDCHAR
STARTCHAR question
ENCODING 63
SWIDTH 576 0
DWIDTH 6 0
BBX 5 9 1 0
BITMAP
20
58
78
10
20
40
40
c0
c0
ENDCHAR
STARTCHAR at
ENCODING 64
SWIDTH 1056 0
DWIDTH 11 0
BBX 12 12 0 -3
BITMAP
0f00
3180
4040
4520
4b20
9320
b620
b640
9330
4060
2180
1e00
ENDCHAR
STARTCHAR A
ENCODING 65
SWIDTH 864 0
DWIDTH 9 0
BBX 8 9 0 0
BITMAP
01
02
06
0e
16
3e
66
46
cf
ENDCHAR
STARTCHAR B
ENCODING 66
SWIDTH 864 0
DWIDTH 9 0
BBX 8 9 0 0
BITMAP
3e
1b
1b
33
3c
33
63
66
f8
ENDCHAR
STARTCHAR C
ENCODING 67
SWIDTH 864 0
DWIDTH 9 0
BBX 9 9 1 0
BITMAP
0e80
3100
6100
6000
c000
c000
c200
6600
3800
ENDCHAR
STARTCHAR D
ENCODING 68
SWIDTH 864 0
DWIDTH 9 0
BBX 9 9 0 0
BITMAP
3e00
1900
3180
3180
3180
2300
6300
6c00
f800
ENDCHAR
STARTCHAR E
ENCODING 69
SWIDTH 864 0
DWIDTH 9 0
BBX 9 9 0 0
BITMAP
3f80
1880
1900
3200
3e00
3200
7000
6300
ff00
ENDCHAR
STARTCHAR F
ENCODING 70
SWIDTH 864 0
DWIDTH 9 0
BBX 9 9 0 0
BITMAP
3f80
1880
1900
3e00
3200
3000
6000
6000
f000
ENDCHAR
STARTCHAR G
ENCODING 71
SWIDTH 864 0
DWIDTH 9 0
BBX 9 9 1 0
BITMAP
0e80
3100
6100
e000
cf00
c600
c600
6400
1800
ENDCHAR
STARTCHAR H
ENCODING 72
SWIDTH 960 0
DWIDTH 10 0
BBX 11 9 0 0
BITMAP
3de0
18c0
18c0
3180
3f80
3180
6300
6300
f780
ENDCHAR
STARTCHAR I
ENCODING 73
SWIDTH 480 0
DWIDTH 5 0
BBX 6 9 0 0
BITMAP
3c
18
18
30
30
30
60
60
f0
ENDCHAR
STARTCHAR J
ENCODING 74
SWIDTH 576 0
DWIDTH 6 0
BBX 7 9 0 0
BITMAP
0e
04
0c
0c
08
18
58
d0
60
ENDCHAR
STARTCHAR K
ENCODING 75
SWIDTH 864 0
DWIDTH 9 0
BBX 9 9 0 0
BITMAP
3f80
1900
3200
3400
3c00
2c00
6600
6600
ff00
ENDCHAR
STARTCHAR L
ENCODING 76
SWIDTH 768 0
DWIDTH 8 0
BBX 8 9 0 0
BITMAP
3c
18
10
30
30
30
61
62
fe
ENDCHAR
STARTCHAR M
ENCODING 77
SWIDTH 1152 0
DWIDTH 12 0
BBX 12 9 0 0
BITMAP
3870
18e0
18e0
3940
3ac0
2ac0
4c80
4980
cbc0
ENDCHAR
STARTCHAR N
ENCODING 78
SWIDTH 864 0
DWIDTH 9 0
BBX 10 9 0 0
BITMAP
38c0
1880
1c80
2c80
2e80
2700
4700
4200
c200
ENDCHAR
STARTCHAR O
ENCODING 79
SWIDTH 864 0
DWIDTH 9 0
BBX 8 9 1 0
BITMAP
0c
12
63
63
c3
c6
c6
48
30
ENDCHAR
STARTCHAR P
ENCODING 80
SWIDTH 768 0
DWIDTH 8 0
BBX 8 9 0 0
BITMAP
3c
13
33
36
3c
60
60
60
f0
ENDCHAR
STARTCHAR Q
ENCODING 81
SWIDTH 864 0
DWIDTH 9 0
BBX 8 12 1 -3
BITMAP
0c
12
23
63
43
c3
c6
c4
48
30
71
fe
ENDCHAR
STARTCHAR R
ENCODING 82
SWIDTH 864 0
DWIDTH 9 0
BBX 8 9 0 0
BITMAP
3e
13
33
36
3c
6c
6c
66
f7
ENDCHAR
STARTCHAR S
ENCODING 83
SWIDTH 672 0
DWIDTH 7 0
BBX 8 9 0 0
BITMAP
19
16
32
30
18
0c
8c
cc
f8
ENDCHAR
STARTCHAR T
ENCODING 84
SWIDTH 768 0
DWIDTH 8 0
BBX 7 9 1 0
BITMAP
fe
9a
10
30
30
20
60
60
f0
ENDCHAR
STARTCHAR U
ENCODING 85
SWIDTH 864 0
DWIDTH 9 0
BBX 10 9 1 0
BITMAP
79c0
3080
6080
6080
6100
c100
c200
c400
7800
ENDCHAR
STARTCHAR V
ENCODING 86
SWIDTH 864 0
DWIDTH 9 0
BBX 8 9 2 0
BITMAP
e3
c3
c2
c4
c8
d0
e0
c0
80
ENDCHAR
STARTCHAR W
ENCODING 87
SWIDTH 1152 0
DWIDTH 12 0
BBX 11 9 2 0
BITMAP
ee60
ce20
cc40
dc80
dd00
ee00
cc00
8800
8800
ENDCHAR
STARTCHAR X
ENCODING 88
SWIDTH 864 0
DWIDTH 9 0
BBX 10 9 0 0
BITMAP
3dc0
1880
1900
0e00
0c00
1600
2600
4300
e780
ENDCHAR
STARTCHAR Y
ENCODING 89
SWIDTH 768 0
DWIDTH 8 0
BBX 7 9 2 0
BITMAP
f6
62
64
68
30
20
60
60
f0
ENDCHAR
STARTCHAR Z
ENCODING 90
SWIDTH 768 0
DWIDTH 8 0
BBX 8 9 0 0
BITMAP
3f
27
46
0c
18
30
62
e4
fc
ENDCHAR
STARTCHAR bracketleft
ENCODING 91
SWIDTH 384 0
DWIDTH 4 0
BBX 5 11 0 -2
BITMAP
18
30
30
20
60
60
40
40
c0
80
c0
ENDCHAR
STARTCHAR backslash
ENCODING 92
SWIDTH 384 0
DWIDTH 4 0
BBX 2 9 1 0
BITMAP
80
80
80
80
80
40
40
40
40
ENDCHAR
STARTCHAR bracketright
ENCODING 93
SWIDTH 384 0
DWIDTH 4 0
BBX 5 11 -1 -2
BITMAP
18
08
18
10
10
30
30
20
60
60
c0
ENDCHAR
STARTCHAR asciicircum
ENCODING 94
SWIDTH 672 0
DWIDTH 7 0
BBX 5 5 2 4
BITMAP
20
70
50
88
88
ENDCHAR
STARTCHAR underscore
ENCODING 95
SWIDTH 576 0
DWIDTH 6 0
BBX 6 1 -1 -3
BITMAP
fc
ENDCHAR
STARTCHAR grave
ENCODING 96
SWIDTH 384 0
DWIDTH 4 0
BBX 2 2 2 7
BITMAP
c0
40
ENDCHAR
STARTCHAR a
ENCODING 97
SWIDTH 576 0
DWIDTH 6 0
BBX 6 6 0 0
BITMAP
14
2c
6c
c8
d8
fc
ENDCHAR
STARTCHAR b
ENCODING 98
SWIDTH 576 0
DWIDTH 6 0
BBX 6 9 0 0
BITMAP
70
20
60
78
4c
cc
d8
90
60
ENDCHAR
STARTCHAR c
ENCODING 99
SWIDTH 576 0
DWIDTH 6 0
BBX 6 6 0 0
BITMAP
18
2c
40
c0
cc
70
ENDCHAR
STARTCHAR d
ENCODING 100
SWIDTH 576 0
DWIDTH 6 0
BBX 7 9 0 0
BITMAP
06
06
06
14
2c
6c
c8
d8
fc
ENDCHAR
STARTCHAR e
ENCODING 101
SWIDTH 576 0
DWIDTH 6 0
BBX 6 6 0 0
BITMAP
0c
34
6c
f0
c4
f8
ENDCHAR
STARTCHAR f
ENCODING 102
SWIDTH 384 0
DWIDTH 4 0
BBX 9 12 -2 -3
BITMAP
0100
0280
0c00
1e00
0c00
1800
1800
1800
1000
3000
3000
c000
ENDCHAR
STARTCHAR g
ENCODING 103
SWIDTH 576 0
DWIDTH 6 0
BBX 8 9 -1 -3
BITMAP
0c
17
36
14
20
7c
e4
c4
78
ENDCHAR
STARTCHAR h
ENCODING 104
SWIDTH 672 0
DWIDTH 7 0
BBX 7 9 1 0
BITMAP
70
30
20
6c
7c
6c
cc
ca
9c
ENDCHAR
STARTCHAR i
ENCODING 105
SWIDTH 384 0
DWIDTH 4 0
BBX 3 9 1 0
BITMAP
60
60
00
c0
c0
c0
80
a0
c0
ENDCHAR
STARTCHAR j
ENCODING 106
SWIDTH 384 0
DWIDTH 4 0
BBX 6 12 -2 -3
BITMAP
0c
0c
00
1c
18
18
18
10
30
30
20
c0
ENDCHAR
STARTCHAR k
ENCODING 107
SWIDTH 576 0
DWIDTH 6 0
BBX 6 9 0 0
BITMAP
70
20
20
6c
68
70
d0
dc
98
ENDCHAR
STARTCHAR l
ENCODING 108
SWIDTH 384 0
DWIDTH 4 0
BBX 3 9 1 0
BITMAP
60
60
60
40
40
c0
c0
a0
c0
ENDCHAR
STARTCHAR m
ENCODING 109
SWIDTH 960 0
DWIDTH 10 0
BBX 10 6 0 0
BITMAP
ed80
7f80
6f80
c980
d940
9b80
ENDCHAR
STARTCHAR n
ENCODING 110
SWIDTH 672 0
DWIDTH 7 0
BBX 7 6 1 0
BITMAP
ec
7c
6c
cc
ca
9c
ENDCHAR
STARTCHAR o
ENCODING 111
SWIDTH 576 0
DWIDTH 6 0
BBX 6 6 0 0
BITMAP
18
2c
4c
c8
d0
60
ENDCHAR
STARTCHAR p
ENCODING 112
SWIDTH 576 0
DWIDTH 6 0
BBX 7 9 -1 -3
BITMAP
3e
26
26
24
68
50
40
c0
e0
ENDCHAR
STARTCHAR q
ENCODING 113
SWIDTH 576 0
DWIDTH 6 0
BBX 6 9 0 -3
BITMAP
14
2c
6c
c8
d8
f8
18
10
38
ENDCHAR
STARTCHAR r
ENCODING 114
SWIDTH 480 0
DWIDTH 5 0
BBX 5 6 0 0
BITMAP
78
58
60
60
40
c0
ENDCHAR
STARTCHAR s
ENCODING 115
SWIDTH 480 0
DWIDTH 5 0
BBX 5 6 0 0
BITMAP
68
58
60
30
a0
c0
ENDCHAR
STARTCHAR t
ENCODING 116
SWIDTH 384 0
DWIDTH 4 0
BBX 4 7 0 0
BITMAP
10
f0
60
60
40
d0
e0
ENDCHAR
STARTCHAR u
ENCODING 117
SWIDTH 672 0
DWIDTH 7 0
BBX 7 6 1 0
BITMAP
e4
4c
cc
d8
fe
d8
ENDCHAR
STARTCHAR v
ENCODING 118
SWIDTH 576 0
DWIDTH 6 0
BBX 5 6 1 0
BITMAP
d8
d8
d0
50
60
40
ENDCHAR
STARTCHAR w
ENCODING 119
SWIDTH 864 0
DWIDTH 9 0
BBX 8 6 1 0
BITMAP
cb
db
f9
da
8c
88
ENDCHAR
STARTCHAR x
ENCODING 120
SWIDTH 576 0
DWIDTH 6 0
BBX 6 6 0 0
BITMAP
24
38
10
10
38
dc
ENDCHAR
STARTCHAR y
ENCODING 121
SWIDTH 576 0
DWIDTH 6 0
BBX 7 9 -1 -3
BITMAP
66
32
32
34
38
30
20
a0
c0
ENDCHAR
STARTCHAR z
ENCODING 122
SWIDTH 480 0
DWIDTH 5 0
BBX 5 7 0 -1
BITMAP
78
58
30
20
e8
28
10
ENDCHAR
STARTCHAR braceleft
ENCODING 123
SWIDTH 480 0
DWIDTH 5 0
BBX 5 12 1 -3
BITMAP
18
20
20
60
60
40
c0
40
40
80
80
40
ENDCHAR
STARTCHAR bar
ENCODING 124
SWIDTH 288 0
DWIDTH 3 0
BBX 1 12 1 -3
BITMAP
80
80
80
80
80
80
80
80
80
80
80
80
ENDCHAR
STARTCHAR braceright
ENCODING 125
SWIDTH 480 0
DWIDTH 5 0
BBX 5 12 -1 -3
BITMAP
08
08
08
10
10
08
08
30
30
20
20
c0
ENDCHAR
STARTCHAR asciitilde
ENCODING 126
SWIDTH 672 0
DWIDTH 7 0
BBX 7 3 1 2
BITMAP
e2
b4
9c
ENDCHAR
STARTCHAR exclamdown
ENCODING 161
SWIDTH 768 0
DWIDTH 8 0
BBX 6 8 1 0
BITMAP
70
88
ec
cc
cc
88
98
90
ENDCHAR
STARTCHAR cent
ENCODING 162
SWIDTH 768 0
DWIDTH 8 0
BBX 7 8 1 0
BITMAP
32
5a
fa
5e
16
16
34
18
ENDCHAR
STARTCHAR sterling
ENCODING 163
SWIDTH 864 0
DWIDTH 9 0
BBX 7 8 1 0
BITMAP
3a
7a
8a
ba
7e
16
14
08
ENDCHAR
STARTCHAR currency
ENCODING 164
SWIDTH 768 0
DWIDTH 8 0
BBX 7 8 1 0
BITMAP
3c
4e
e6
d6
e6
c4
cc
8c
ENDCHAR
STARTCHAR yen
ENCODING 165
SWIDTH 768 0
DWIDTH 8 0
BBX 7 8 1 0
BITMAP
2e
d6
82
f6
e6
86
86
84
ENDCHAR
STARTCHAR brokenbar
ENCODING 166
SWIDTH 960 0
DWIDTH 10 0
BBX 9 8 1 0
BITMAP
3880
7900
a900
b900
fb00
3f00
5200
7200
ENDCHAR
STARTCHAR section
ENCODING 167
SWIDTH 576 0
DWIDTH 6 0
BBX 5 8 1 0
BITMAP
18
28
18
08
98
50
30
10
ENDCHAR
STARTCHAR diaeresis
ENCODING 168
SWIDTH 768 0
DWIDTH 8 0
BBX 6 8 1 0
BITMAP
38
48
6c
ac
6c
28
78
30
ENDCHAR
STARTCHAR copyright
ENCODING 169
SWIDTH 768 0
DWIDTH 8 0
BBX 7 8 1 0
BITMAP
38
4e
46
c6
4c
7c
54
58
ENDCHAR
STARTCHAR ordfeminine
ENCODING 170
SWIDTH 768 0
DWIDTH 8 0
BBX 6 8 1 0
BITMAP
64
b4
f8
f8
28
28
68
70
ENDCHAR
STARTCHAR guillemotleft
ENCODING 171
SWIDTH 864 0
DWIDTH 9 0
BBX 8 8 1 0
BITMAP
39
7b
9e
aa
7a
1e
1e
3c
ENDCHAR
STARTCHAR notsign
ENCODING 172
SWIDTH 960 0
DWIDTH 10 0
BBX 9 8 1 0
BITMAP
3c80
4480
f680
6580
6580
4f80
ad00
4900
ENDCHAR
STARTCHAR hyphen
ENCODING 173
SWIDTH 1056 0
DWIDTH 11 0
BBX 10 12 1 -4
BITMAP
7c40
8480
e680
c480
cc80
ed80
9d00
e600
0000
0d00
1300
0e00
ENDCHAR
STARTCHAR registered
ENCODING 174
SWIDTH 864 0
DWIDTH 9 0
BBX 9 12 0 -4
BITMAP
0e00
1180
3980
1180
3180
7300
b300
eb00
3b00
5a00
6600
0600
ENDCHAR
STARTCHAR macron
ENCODING 175
SWIDTH 864 0
DWIDTH 9 0
BBX 9 12 0 -4
BITMAP
0e00
1180
3980
1180
3180
7300
b300
6b00
1300
6200
fe00
0600
ENDCHAR
STARTCHAR degree
ENCODING 176
SWIDTH 768 0
DWIDTH 8 0
BBX 7 12 0 -4
BITMAP
1a
2c
38
2c
6c
3c
3c
38
28
b8
f8
30
ENDCHAR
STARTCHAR plusminus
ENCODING 177
SWIDTH 960 0
DWIDTH 10 0
BBX 9 8 1 0
BITMAP
5300
7b80
9d80
b980
5900
3b00
3300
3300
ENDCHAR
STARTCHAR twosuperior
ENCODING 178
SWIDTH 1056 0
DWIDTH 11 0
BBX 10 8 1 0
BITMAP
3440
7cc0
cec0
dec0
ec80
dc80
ef80
cc80
ENDCHAR
STARTCHAR threesuperior
ENCODING 179
SWIDTH 1056 0
DWIDTH 11 0
BBX 10 8 1 0
BITMAP
7840
8480
f480
c480
c580
ef00
9e80
6900
ENDCHAR
STARTCHAR acute
ENCODING 180
SWIDTH 768 0
DWIDTH 8 0
BBX 7 8 1 0
BITMAP
38
46
86
b6
b6
ac
cc
8c
ENDCHAR
STARTCHAR mu
ENCODING 181
SWIDTH 768 0
DWIDTH 8 0
BBX 6 8 1 0
BITMAP
6c
d4
b4
b4
94
ec
cc
8c
ENDCHAR
STARTCHAR paragraph
ENCODING 182
SWIDTH 768 0
DWIDTH 8 0
BBX 6 8 1 0
BITMAP
3c
c4
f4
c4
c4
f4
94
ec
ENDCHAR
STARTCHAR periodcentered
ENCODING 183
SWIDTH 864 0
DWIDTH 9 0
BBX 7 8 1 0
BITMAP
66
aa
f2
36
66
66
64
44
ENDCHAR
STARTCHAR cedilla
ENCODING 184
SWIDTH 768 0
DWIDTH 8 0
BBX 7 8 1 0
BITMAP
72
7c
f0
6c
68
48
48
f8
ENDCHAR
STARTCHAR onesuperior
ENCODING 185
SWIDTH 864 0
DWIDTH 9 0
BBX 8 8 1 0
BITMAP
61
a3
63
26
26
7c
6a
44
ENDCHAR
STARTCHAR masculine
ENCODING 186
SWIDTH 864 0
DWIDTH 9 0
BBX 7 8 1 0
BITMAP
62
a2
e2
26
26
66
64
fc
ENDCHAR
STARTCHAR guillemotright
ENCODING 187
SWIDTH 864 0
DWIDTH 9 0
BBX 8 13 1 0
BITMAP
01
01
01
03
03
62
a2
e2
22
26
66
64
f8
ENDCHAR
STARTCHAR onequarter
ENCODING 188
SWIDTH 768 0
DWIDTH 8 0
BBX 8 8 0 0
BITMAP
31
4b
73
4b
db
e6
c6
84
ENDCHAR
STARTCHAR onehalf
ENCODING 189
SWIDTH 768 0
DWIDTH 8 0
BBX 8 13 0 0
BITMAP
01
01
03
03
03
32
52
62
d6
de
ee
c4
84
ENDCHAR
STARTCHAR threequarters
ENCODING 190
SWIDTH 960 0
DWIDTH 10 0
BBX 8 8 1 0
BITMAP
65
ad
6d
2f
37
73
62
62
ENDCHAR
STARTCHAR questiondown
ENCODING 191
SWIDTH 960 0
DWIDTH 10 0
BBX 9 13 1 0
BITMAP
0080
0080
0080
0180
0180
6580
a500
6d00
2d00
3300
7300
6300
6200
ENDCHAR
STARTCHAR Agrave
ENCODING 192
SWIDTH 864 0
DWIDTH 9 0
BBX 8 8 0 0
BITMAP
0e
13
39
11
33
73
a3
42
ENDCHAR
STARTCHAR Aacute
ENCODING 193
SWIDTH 864 0
DWIDTH 9 0
BBX 7 8 1 0
BITMAP
62
a6
66
26
66
d4
dc
cc
ENDCHAR
STARTCHAR Acircumflex
ENCODING 194
SWIDTH 672 0
DWIDTH 7 0
BBX 7 8 1 0
BITMAP
62
d4
e4
c4
ec
8c
88
f8
ENDCHAR
STARTCHAR Atilde
ENCODING 195
SWIDTH 672 0
DWIDTH 7 0
BBX 6 8 1 0
BITMAP
34
78
f0
18
10
30
50
30
ENDCHAR
STARTCHAR Adiaeresis
ENCODING 196
SWIDTH 768 0
DWIDTH 8 0
BBX 6 12 1 -4
BITMAP
38
44
f4
c4
c4
f4
9c
ec
0c
08
08
08
ENDCHAR
STARTCHAR Aring
ENCODING 197
SWIDTH 768 0
DWIDTH 8 0
BBX 6 8 1 0
BITMAP
38
cc
3c
6c
cc
f8
98
e8
ENDCHAR
STARTCHAR AE
ENCODING 198
SWIDTH 864 0
DWIDTH 9 0
BBX 8 12 0 -4
BITMAP
1e
23
3b
33
32
66
a6
c6
06
04
04
04
ENDCHAR
STARTCHAR Ccedilla
ENCODING 199
SWIDTH 672 0
DWIDTH 7 0
BBX 5 8 2 0
BITMAP
70
88
08
08
18
38
58
30
ENDCHAR
STARTCHAR Egrave
ENCODING 200
SWIDTH 768 0
DWIDTH 8 0
BBX 7 8 1 0
BITMAP
3a
cc
ac
d4
e4
cc
cc
8c
ENDCHAR
STARTCHAR Eacute
ENCODING 201
SWIDTH 864 0
DWIDTH 9 0
BBX 7 8 1 0
BITMAP
62
a2
e2
3e
26
7e
64
fc
ENDCHAR
STARTCHAR Ecircumflex
ENCODING 202
SWIDTH 768 0
DWIDTH 8 0
BBX 7 8 1 0
BITMAP
7a
8e
3c
5c
cc
e8
b8
d8
ENDCHAR
STARTCHAR Ediaeresis
ENCODING 203
SWIDTH 864 0
DWIDTH 9 0
BBX 9 8 1 0
BITMAP
6300
9280
7700
2b00
3300
2200
6200
6600
ENDCHAR
STARTCHAR Igrave
ENCODING 204
SWIDTH 1056 0
DWIDTH 11 0
BBX 10 8 1 0
BITMAP
4540
a680
ed00
2d00
7700
6300
6300
4300
ENDCHAR
STARTCHAR Iacute
ENCODING 205
SWIDTH 768 0
DWIDTH 8 0
BBX 6 8 1 0
BITMAP
70
9c
6c
bc
cc
88
98
60
ENDCHAR
STARTCHAR Icircumflex
ENCODING 206
SWIDTH 672 0
DWIDTH 7 0
BBX 7 8 0 0
BITMAP
3a
46
3e
76
54
e4
4c
30
ENDCHAR
STARTCHAR Idiaeresis
ENCODING 207
SWIDTH 864 0
DWIDTH 9 0
BBX 6 8 2 0
BITMAP
0c
0c
54
9c
ec
0c
08
08
ENDCHAR
STARTCHAR ETH
ENCODING 208
SWIDTH 672 0
DWIDTH 7 0
BBX 7 8 0 0
BITMAP
22
52
54
78
00
44
ac
70
ENDCHAR
STARTCHAR Ntilde
ENCODING 209
SWIDTH 0 0
DWIDTH 0 0
BBX 6 4 -4 9
BITMAP
44
a4
c8
70
ENDCHAR
STARTCHAR Ograve
ENCODING 210
SWIDTH 576 0
DWIDTH 6 0
BBX 4 8 1 0
BITMAP
60
b0
30
30
20
20
60
60
ENDCHAR
STARTCHAR Oacute
ENCODING 211
SWIDTH 576 0
DWIDTH 6 0
BBX 8 12 -3 0
BITMAP
c0
a0
c0
00
06
0b
03
03
02
02
06
06
ENDCHAR
STARTCHAR Ocircumflex
ENCODING 212
SWIDTH 0 0
DWIDTH 0 0
BBX 6 4 -6 9
BITMAP
38
c4
fc
04
ENDCHAR
STARTCHAR Otilde
ENCODING 213
SWIDTH 0 0
DWIDTH 0 0
BBX 6 4 -6 9
BITMAP
34
cc
f4
0c
ENDCHAR
STARTCHAR Odiaeresis
ENCODING 214
SWIDTH 0 0
DWIDTH 0 0
BBX 7 4 -6 9
BITMAP
3e
cc
f4
0c
ENDCHAR
STARTCHAR multiply
ENCODING 215
SWIDTH 0 0
DWIDTH 0 0
BBX 6 5 -5 9
BITMAP
14
3c
cc
f4
0c
ENDCHAR
STARTCHAR Ooblique
ENCODING 216
SWIDTH 0 0
DWIDTH 0 0
BBX 3 4 -5 -4
BITMAP
60
a0
60
20
ENDCHAR
STARTCHAR Ugrave
ENCODING 217
SWIDTH 0 0
DWIDTH 0 0
BBX 5 4 -7 -4
BITMAP
68
a8
f8
78
ENDCHAR
STARTCHAR Uacute
ENCODING 218
SWIDTH 0 0
DWIDTH 0 0
BBX 2 2 -4 -3
BITMAP
c0
c0
ENDCHAR
STARTCHAR Ucircumflex
ENCODING 219
SWIDTH 384 0
DWIDTH 4 0
BBX 0 0 0 0
BITMAP
ENDCHAR
STARTCHAR Udiaeresis
ENCODING 220
SWIDTH 384 0
DWIDTH 4 0
BBX 4 2 1 -2
BITMAP
e0
90
ENDCHAR
STARTCHAR ssharp
ENCODING 223
SWIDTH 864 0
DWIDTH 9 0
BBX 8 10 0 0
BITMAP
04
7c
37
3b
3c
6e
6b
6b
ec
18
ENDCHAR
STARTCHAR agrave
ENCODING 224
SWIDTH 288 0
DWIDTH 3 0
BBX 3 8 0 0
BITMAP
20
20
60
60
60
60
a0
40
ENDCHAR
STARTCHAR aacute
ENCODING 225
SWIDTH 672 0
DWIDTH 7 0
BBX 8 8 0 0
BITMAP
22
22
66
66
66
66
aa
66
ENDCHAR
STARTCHAR acircumflex
ENCODING 226
SWIDTH 480 0
DWIDTH 5 0
BBX 6 14 1 0
BITMAP
64
98
c0
20
30
20
20
20
60
60
60
60
a0
40
ENDCHAR
STARTCHAR atilde
ENCODING 227
SWIDTH 480 0
DWIDTH 5 0
BBX 5 13 0 0
BITMAP
78
b8
b8
58
10
10
30
30
20
20
30
50
20
ENDCHAR
STARTCHAR adiaeresis
ENCODING 228
SWIDTH 576 0
DWIDTH 6 0
BBX 5 14 1 0
BITMAP
98
b8
b8
b8
b0
d0
30
30
30
20
20
20
50
20
ENDCHAR
STARTCHAR aring
ENCODING 229
SWIDTH 576 0
DWIDTH 6 0
BBX 4 12 1 -4
BITMAP
60
b0
30
30
20
20
60
60
60
40
40
40
ENDCHAR
STARTCHAR ae
ENCODING 230
SWIDTH 672 0
DWIDTH 7 0
BBX 5 12 1 -4
BITMAP
28
78
88
a8
48
08
18
18
10
10
10
10
ENDCHAR
STARTCHAR ccedilla
ENCODING 231
SWIDTH 0 0
DWIDTH 0 0
BBX 5 4 -4 9
BITMAP
18
70
f0
70
ENDCHAR
STARTCHAR egrave
ENCODING 232
SWIDTH 0 0
DWIDTH 0 0
BBX 1 3 0 15
BITMAP
80
80
80
ENDCHAR
STARTCHAR eacute
ENCODING 233
SWIDTH 0 0
DWIDTH 0 0
BBX 4 3 -2 15
BITMAP
d0
f0
c0
ENDCHAR
STARTCHAR ecircumflex
ENCODING 234
SWIDTH 0 0
DWIDTH 0 0
BBX 6 4 -2 16
BITMAP
04
74
98
60
ENDCHAR
STARTCHAR ediaeresis
ENCODING 235
SWIDTH 0 0
DWIDTH 0 0
BBX 3 3 -2 16
BITMAP
40
e0
40
ENDCHAR
STARTCHAR igrave
ENCODING 236
SWIDTH 0 0
DWIDTH 0 0
BBX 3 4 -1 14
BITMAP
20
20
c0
c0
ENDCHAR
STARTCHAR iacute
ENCODING 237
SWIDTH 0 0
DWIDTH 0 0
BBX 3 3 -3 9
BITMAP
40
a0
40
ENDCHAR
STARTCHAR icircumflex
ENCODING 238
SWIDTH 0 0
DWIDTH 0 0
BBX 4 5 -2 9
BITMAP
30
40
60
80
e0
ENDCHAR
STARTCHAR idiaeresis
ENCODING 239
SWIDTH 672 0
DWIDTH 7 0
BBX 6 7 1 0
BITMAP
30
2c
7c
bc
bc
48
30
ENDCHAR
STARTCHAR eth
ENCODING 240
SWIDTH 768 0
DWIDTH 8 0
BBX 7 6 0 0
BITMAP
38
46
82
82
cc
38
ENDCHAR
STARTCHAR ntilde
ENCODING 241
SWIDTH 672 0
DWIDTH 7 0
BBX 6 6 0 0
BITMAP
38
44
a4
b4
94
68
ENDCHAR
STARTCHAR ograve
ENCODING 242
SWIDTH 1056 0
DWIDTH 11 0
BBX 9 9 1 0
BITMAP
4000
4000
4000
5b00
5480
e480
ec80
d500
7e00
ENDCHAR
STARTCHAR oacute
ENCODING 243
SWIDTH 960 0
DWIDTH 10 0
BBX 9 6 0 0
BITMAP
3380
4c80
8480
a480
a900
5300
ENDCHAR
STARTCHAR ocircumflex
ENCODING 244
SWIDTH 960 0
DWIDTH 10 0
BBX 10 9 0 0
BITMAP
0040
0040
0380
1c00
6700
cb00
c800
ee00
7180
ENDCHAR
STARTCHAR otilde
ENCODING 245
SWIDTH 960 0
DWIDTH 10 0
BBX 10 9 0 0
BITMAP
0040
0440
0ac0
0f00
1800
6700
c500
c600
7b00
ENDCHAR
STARTCHAR odiaeresis
ENCODING 246
SWIDTH 672 0
DWIDTH 7 0
BBX 6 9 0 0
BITMAP
c0
60
20
78
6c
04
44
c8
30
ENDCHAR
STARTCHAR division
ENCODING 247
SWIDTH 960 0
DWIDTH 10 0
BBX 10 9 0 0
BITMAP
0180
0080
0040
3a40
7f40
c540
8180
9980
7200
ENDCHAR
STARTCHAR oslash
ENCODING 248
SWIDTH 960 0
DWIDTH 10 0
BBX 10 9 0 0
BITMAP
0040
0040
00c0
3880
c700
8000
8100
f300
4e00
ENDCHAR
STARTCHAR ugrave
ENCODING 249
SWIDTH 768 0
DWIDTH 8 0
BBX 8 9 0 0
BITMAP
01
1b
66
62
74
c0
8c
c4
78
ENDCHAR
STARTCHAR uacute
ENCODING 250
SWIDTH 960 0
DWIDTH 10 0
BBX 8 8 1 0
BITMAP
0d
0d
75
95
6d
0f
0a
0a
ENDCHAR
STARTCHAR ucircumflex
ENCODING 251
SWIDTH 1536 0
DWIDTH 16 0
BBX 15 7 1 0
BITMAP
3800
4400
4000
82a2
87d4
8d58
7000
ENDCHAR
STARTCHAR udiaeresis
ENCODING 252
SWIDTH 0 0
DWIDTH 0 0
BBX 4 4 -6 -9
BITMAP
70
f0
30
30
ENDCHAR
STARTCHAR yacute
ENCODING 253
SWIDTH 0 0
DWIDTH 0 0
BBX 4 4 -7 -8
BITMAP
d0
d0
f0
70
ENDCHAR
STARTCHAR thorn
ENCODING 254
SWIDTH 0 0
DWIDTH 0 0
BBX 2 2 -4 -7
BITMAP
c0
c0
ENDCHAR
STARTCHAR C000400
ENCODING 256
SWIDTH 288 0
DWIDTH 3 0
BBX 0 0 0 0
BITMAP
ENDCHAR
STARTCHAR C000401
ENCODING 257
SWIDTH 288 0
DWIDTH 3 0
BBX 0 0 0 0
BITMAP
ENDCHAR
STARTCHAR C000430
ENCODING 280
SWIDTH 288 0
DWIDTH 3 0
BBX 0 0 0 0
BITMAP
ENDCHAR
STARTCHAR C001103
ENCODING 579
SWIDTH 576 0
DWIDTH 6 0
BBX 6 1 0 3
BITMAP
fc
ENDCHAR
STARTCHAR C001104
ENCODING 580
SWIDTH 1248 0
DWIDTH 13 0
BBX 13 1 0 3
BITMAP
fff8
ENDCHAR
STARTCHAR C001107
ENCODING 583
SWIDTH 384 0
DWIDTH 4 0
BBX 2 4 2 5
BITMAP
40
80
c0
c0
ENDCHAR
STARTCHAR C001110
ENCODING 584
SWIDTH 384 0
DWIDTH 4 0
BBX 3 4 2 5
BITMAP
60
60
20
c0
ENDCHAR
STARTCHAR C001113
ENCODING 587
SWIDTH 576 0
DWIDTH 6 0
BBX 5 4 2 5
BITMAP
58
a0
f0
f0
ENDCHAR
STARTCHAR C001114
ENCODING 588
SWIDTH 576 0
DWIDTH 6 0
BBX 5 4 2 5
BITMAP
d8
d8
48
b0
ENDCHAR
STARTCHAR C001115
ENCODING 589
SWIDTH 576 0
DWIDTH 6 0
BBX 5 4 0 -2
BITMAP
d8
d8
48
b0
ENDCHAR
STARTCHAR C001121
ENCODING 593
SWIDTH 480 0
DWIDTH 5 0
BBX 4 4 0 2
BITMAP
60
f0
f0
60
ENDCHAR
STARTCHAR C001122
ENCODING 594
SWIDTH 1248 0
DWIDTH 13 0
BBX 11 2 1 0
BITMAP
c660
c660
ENDCHAR
ENDFONT
